<?xml version="1.0" encoding="utf-8"?>
<!-- Generator: Adobe Illustrator 22.1.0, SVG Export Plug-In . SVG Version: 6.00 Build 0)  -->
<svg version="1.1" id="Layer_4" xmlns="http://www.w3.org/2000/svg" xmlns:xlink="http://www.w3.org/1999/xlink" x="0px" y="0px"
	 viewBox="0 0 1400 1400" style="enable-background:new 0 0 1400 1400;" xml:space="preserve">
<style type="text/css">
	.st0{fill:#D0D0D0;}
	.st1{fill:#9DA2C1;}
	.st2{fill:#8289AF;}
	.st3{fill:#B7BCBB;}
	.st4{fill:#A6B2AF;}
	.st5{fill:#50BC9F;}
	.st6{fill:#65D1B2;}
	.st7{fill:#37A082;}
	.st8{fill:#218465;}
	.st9{fill:#FF966C;}
	.st10{fill:#FFAC8F;}
	.st11{fill:#EF815B;}
	.st12{fill:#E06948;}
	.st13{fill:#8E3B28;}
	.st14{fill:#A04435;}
	.st15{fill:#7C2E22;}
	.st16{fill:#FFFFFF;}
	.st17{fill:#EDE3DF;}
	.st18{fill:#DDCFCA;}
	.st19{fill:#144FA9;}
	.st20{fill:#003E89;}
	.st21{fill:#003177;}
	.st22{fill:#2864BC;}
	.st23{fill:#7C401F;}
	.st24{fill:#934E2C;}
	.st25{fill:#723618;}
	.st26{fill:#602C16;}
	.st27{fill:#4C1F0F;}
</style>
<g>
	<rect class="st0" width="1400" height="1400"/>
	<rect class="st1" width="1400" height="931.7"/>
	<g>
		<path class="st2" d="M814.8,450.6c65.6,0,65.6,0,65.6,0v481H504v-481c0,0,0,0,65.6,0C371,302.9,640.4,252.9,692.2,149.3
			C744,252.9,1013.4,302.9,814.8,450.6z"/>
		<path class="st2" d="M374.2,450.6c65.6,0,65.6,0,65.6,0v481H63.3v-481c0,0,0,0,65.6,0c-198.6-147.7,70.8-197.7,122.6-301.3
			C303.4,252.9,572.8,302.9,374.2,450.6z"/>
		<path class="st2" d="M1271.1,450.6c65.6,0,65.6,0,65.6,0v481H960.2v-481c0,0,0,0,65.6,0c-198.6-147.7,70.8-197.7,122.6-301.3
			C1200.3,252.9,1469.7,302.9,1271.1,450.6z"/>
	</g>
	<g>
		<path class="st3" d="M1400,1398.8v-263.4c-1.8-0.8-3.7-1.6-5.5-2.4c-19-8.1-360.6-133.7-425.4-148.2
			c-45.2-10.1-92.8-13.4-138.2-2.1c0,0-492.7,178.5-492.7,178.5c-15.6,11.9-14.6,31.5-2.1,45.2c13.9,15.2,35.3,21.9,53.7,29.9
			c152.4,66.1,309,120.2,461.7,162.6H1400z"/>
		<path class="st4" d="M1117,1196c-81.3-132.1,19.5-125.9-258.4-218.4c-9.3,1.2-18.5,2.8-27.7,5.1c0,0-411.5,149-482.4,174.7
			c-22,66.3,40.4,32.3,56.5,27.6c9-3,20,0,23,9c33.8,79,306.3-68.8,524,40C1051.3,1277.9,1136.5,1231.1,1117,1196z"/>
		<g>
			<path class="st5" d="M1086,865.3c-28.7-209.8-98.3-392.5-309.1-379.9c-132.3,7.9,12.5,9.3-142.7,0
				c-212.1-12.7-279.1,170.3-307.8,379.9c-4,29.3-6.4,63.2,15.7,86.4c319.2,335.4,728.2,0,728.2,0
				C1092.4,928.5,1090,894.6,1086,865.3z"/>
			<path class="st6" d="M361,761c11-50,23-96,49-140c37.9-65.7,97.3-112.5,169.3-134.2C410.1,506.6,352.5,675,326.4,865.3
				c-4,29.3-6.4,63.2,15.7,86.4c0.7,0.8,1.5,1.6,2.2,2.3C343.1,890.4,346.7,826.4,361,761z"/>
			<path class="st7" d="M508,660c-66.3,92.8-113.1,190.1-124.6,331c27,23.2,54.4,42,82,57.2C445.4,919.3,467.7,783.7,508,660z"/>
			<path class="st7" d="M1085.4,865.3c-28.7-209.8-98.3-392.5-309.1-379.9c-118.8,7.1-14,9-104.1,2.5
				c-61.6,321.6,71.5,202.7,91.2,306c12.4,57.9-26.1,219.6-197.4,294c258.7,64.6,503.7-136.3,503.7-136.3
				C1091.7,928.5,1089.4,894.6,1085.4,865.3z"/>
			<path class="st8" d="M798,540c-18.3-4.6-31-23.8-48.7-52.7c-74.6,5.6,4.8,6.6-77.2,0.7c-25.3,132.1-17.7,189.9,1.3,219.3
				C869.4,711.2,902.5,563.7,798,540z"/>
			<path class="st8" d="M928.2,679.7c5.8,81,81.2,152.4-75.7,389c59.6-20.4,110.9-47.3,148.6-70.2C1028,877.4,971,782.9,928.2,679.7
				z"/>
			<path class="st9" d="M432.3,797.7c-85.3,2.1-110.2,90.4-87.1,128.5c39.3,64.8,297.6-20.1,301.5-33.7
				C659.8,847.7,522.1,795.5,432.3,797.7z"/>
			<path class="st10" d="M400,805c1.7-1.2,3.4-2.3,5.1-3.2c-58.8,16.7-77.7,80.8-63.6,116.9C346.4,866.2,354.5,837.7,400,805z"/>
			<path class="st11" d="M432.3,797.7c-16.6,0.4-30.9,4.1-43,10c41.1,34.4,65.4,87.9,65.1,140.2c86.1-9.8,189.8-46.8,192.3-55.3
				C659.8,847.7,522.1,795.5,432.3,797.7z"/>
			<path class="st9" d="M979,797.7c85.3,2.1,110.2,90.4,87.1,128.5c-39.3,64.8-297.6-20.1-301.5-33.7
				C751.5,847.7,889.2,795.5,979,797.7z"/>
			<path class="st11" d="M1004.8,801.3c-7.9-2.1-16.5-3.4-25.8-3.6c-89.8-2.2-227.5,49.9-214.4,94.9c2.8,9.5,130.1,53.9,219.8,57.5
				C956.5,895,947.4,834.1,1004.8,801.3z"/>
			<g>
				<path class="st9" d="M818.4,571.1c-9.6-23.4-38.3-46.2-49.7-106.1c-0.1-0.8-0.3-1.6-0.4-2.3c36.5-35.8,50.5-95.2,33.2-143.3
					c-11.1-30.9-34.2-54.7-64.6-67.1c-73.6-30.1-148.8,20.9-136.7,117.3c5,39.5,20,74.8,42.1,97.6c-10.2,38.3-37.8,66.7-47.1,102.5
					c-19.1,73.3,69.5,160.5,100.4,161.4C720.4,731.7,843.3,631.6,818.4,571.1z"/>
				<path class="st10" d="M648,676c-15-19-30-39-32-63c-2-33,2-65,8-99c0.6-2.7,1.3-5.4,1.9-8.1c-11.5,21.2-24.8,40.9-30.7,63.7
					c-19.1,73.3,69.5,160.5,100.4,161.4c0.1,0,0.2,0,0.2,0C679.6,713.5,663,696.6,648,676z"/>
				<path class="st10" d="M600.3,369.5c3.8,30,13.4,57.6,27.5,79.1c-15.1-42.8-23.6-88.1-24.4-133.4
					C599,331.1,597.7,349.3,600.3,369.5z"/>
				<path class="st11" d="M744.3,406.1c-9.9-3.1-21-3.4-31.2-2.1c-20.7,2.5-41.4,11.3-54.2,28.2c-2.1,2.8,2,6.8,4.9,4.9
					c14.4-10.1,30.1-18.7,47.8-20.4c8.3-0.8,17-0.6,25.1,1.5c3.5,0.9,7,2.1,10,4.2c3.4,2.4,4.9,6.2,8.3,8.7
					c4.3,3.1,10.4-1.1,10.3-5.9C764.9,415,752.6,408.7,744.3,406.1z"/>
				<path class="st11" d="M818.4,571.1c-9.6-23.4-38.3-46.2-49.7-106.1c-0.1-0.8-0.3-1.6-0.4-2.3c36.5-35.8,50.5-95.2,33.2-143.3
					c-11.1-30.9-34.2-54.7-64.6-67.1c-57.3-23.4-115.5,2.3-132.8,60.3c47.7-6.8,149.6-18.9,163.9,26.5c12,39,19,90-14,121
					c-36.6,9.9-77.9,12.3-115.3,3c1.2,1.4,2.4,2.7,3.7,4c-2.2,8.4-5.3,16.3-8.8,23.9C779.7,499,776.6,557.5,778,593
					c2,30.8-2.1,63.4-13.9,92.6C799.8,651.5,832.4,605.1,818.4,571.1z"/>
				<path class="st12" d="M638.7,463c1.2,1.4,2.4,2.7,3.7,4c-0.8,2.9-1.6,5.7-2.6,8.5c69,26.1,107.8,4.7,144.2,37.5
					c-6.1-12.9-11.7-28.5-15.4-48c-0.1-0.8-0.3-1.6-0.4-2.3c3.2-3.1,6.2-6.5,9.1-10C754.6,457.6,705.1,479.5,638.7,463z"/>
				<path class="st12" d="M801.5,319.4c-11.1-30.9-34.2-54.7-64.6-67.1c-48-19.6-96.8-4.7-121.4,34.8
					c147.8,1.9,181.2,29.9,191.8,96.5C810.5,361.9,808.8,339.6,801.5,319.4z"/>
				<path class="st13" d="M809,353.8c-0.6-3.2-5.1-2.2-5.4,0.7c-1.9,22.9-15.9,57.8-37.9,56.1c-8.1-0.6-15.2-5.9-22.5-9.2
					c-7.1-3.2-14.7-5-22.5-5.5c-16.7-0.9-31.1,5.3-44.5,14.8c-5.8,4.1-12.2,9-19.7,9c-8.1-0.1-20.2-4.3-25.6-9.8
					c-19.8-20.2-30.9-52.8-32.1-54.5c-1-1.4-2.9-0.8-3.1,0.8c-0.4,3.7,4.4,50.7,17.8,79.6c9.7,21.1,26.4,37.3,47.7,46.3
					c42.5,18,94.3,4.7,123.4-31.1C807.8,422.8,814.5,382.6,809,353.8z M709,439.5c-8.7,0.5-17.5-0.8-25.7-3.7c-5.6-2-10.6-5-15.7-8
					c0.4-0.1,0.7-0.3,1.1-0.4c7.8-3.2,14.1-8.8,21.2-13.1c7.8-4.8,16.8-7.4,26-7.6c9-0.2,17.6,1.9,25.6,5.9c3.5,1.8,7,3.6,10.5,5.2
					C741,430.2,725.7,438.5,709,439.5z"/>
				<path class="st14" d="M603.7,366.6c-2.7-6.2-4.3-10.5-4.8-11.1c-1-1.4-2.9-0.8-3.1,0.8c-0.4,3.7,4.4,50.7,17.8,79.6
					c3.1,6.8,7,13.1,11.5,18.7C611.4,427.1,602.8,396.9,603.7,366.6z"/>
				<path class="st14" d="M728,405c15,3,30,14,44,8c23.3-10.4,29.2-35.7,32.1-59.8c-0.3,0.4-0.5,0.8-0.5,1.4
					c-1.9,22.9-15.9,57.8-37.9,56.1c-8.1-0.6-15.2-5.9-22.5-9.2c-7.1-3.2-14.7-5-22.5-5.5c-13.3-0.7-25.1,3-36.1,9.4
					C699,403.1,713.5,402.7,728,405z"/>
				<path class="st15" d="M809,353.8c-0.2-0.8-0.6-1.4-1.1-1.7c-1.6,49.1-23.1,99.4-75.9,113.8c-32,9-70.9,8.8-101.4-4.9
					c8.5,9,18.9,16.1,30.7,21.1c42.5,18,94.3,4.7,123.4-31.1C807.8,422.8,814.5,382.6,809,353.8z"/>
				<path class="st16" d="M749.6,202.6c-42.8-19.1-95.3-9.6-125.4,26.1c-16.2,19.3-25.5,43.7-24.4,68.6c0.2,4.6,4.3,7.4,8.9,6.5
					c21.7-4.1,94.9-31.7,187.7,10.7c3.1,1.4,7.7,0.5,8.5-3.3C813.7,268.3,791.6,221.3,749.6,202.6z"/>
				<path class="st17" d="M775.2,219.5c3.8,14.1,0.3,29.7-13.2,38.5c-17,10-35,11-53,11c-32.4-1.2-71.9-8.9-107.6,7.1
					c-1.3,7-1.9,14.1-1.6,21.2c0.2,4.6,4.3,7.4,8.9,6.5c21.7-4.1,94.9-31.7,187.7,10.7c3.1,1.4,7.7,0.5,8.5-3.3
					C811.7,278.1,800.1,242.6,775.2,219.5z"/>
				<path class="st18" d="M599.7,291.5c0,2,0,3.9,0.1,5.9c0.2,4.6,4.3,7.4,8.9,6.5c21.7-4.1,94.9-31.7,187.7,10.7
					c3.1,1.4,7.7,0.5,8.5-3.3c2.7-13.4,2.5-27.1-0.4-40.3C786.9,293.3,712.1,270.8,599.7,291.5z"/>
			</g>
			<g>
				<g>
					<path class="st9" d="M565.1,1104.4c-31.5-36.6-30.2,2-73.2-11.4c-16.2-5.1-31-11.1-48.3-8.6c-30.8,4.5-58.7,27.9-78.2,51
						c-11.4,13.5-20.9,28.4-27.9,44.6c-1.7,3.9,1.2,10,6.2,8.1c20.1-7.5,40.2-14.7,60.3-21.9c19.7-7.1,39.3-14.8,59.5-20.4
						c20.3-5.7,40.7-8.4,61.6-5.2c15.4,2.4,36,3.6,43.9-13.3C572.8,1119.5,570.6,1110.8,565.1,1104.4z"/>
					<path class="st10" d="M415.7,1093.7c-19.5,9.9-36.9,26-50.2,41.8c-8.2,9.8-15.5,20.3-21.6,31.5c3.1-4.2,6.5-8.2,10.1-12
						C374.8,1134.2,393.2,1111.6,415.7,1093.7z"/>
					<path class="st11" d="M565.1,1104.4c-31.5-36.6-30.2,2-73.2-11.4c-16.2-5.1-31-11.1-48.3-8.6c-8.4,1.2-16.5,3.8-24.3,7.5
						c11.8,5.6,21.2,15.4,13.7,27.1c-10,17-22,33-39,44c-7.7,4.7-15.6,10.1-23.7,15.4c11.3-4.1,22.6-8.1,33.8-12.2
						c19.7-7.1,39.3-14.8,59.5-20.4c20.3-5.7,40.7-8.4,61.6-5.2c15.4,2.4,36,3.6,43.9-13.3C572.8,1119.5,570.6,1110.8,565.1,1104.4z
						"/>
					<path class="st19" d="M1014.3,880.8c-68.7-29-175.7,41.3-236.3,84.3c-69.6,49.4-142.7,107.3-230.4,117.4
						c-48,5.6-44.8-16.6-25.7,64.9c1.2,5.3,115.7,38.2,257.6,11.1c77.6-14.9,171.6-51.6,228.6-99.7
						C1087.5,991.9,1066.9,903.1,1014.3,880.8z"/>
					<path class="st20" d="M927,1035c-34,10-42-36-31-58c25.1-51.7,82.8-73.4,139.3-82.2c-6.2-5.9-13.2-10.7-21-13.9
						c-68.7-29-175.7,41.3-236.3,84.3c-69.6,49.4-142.7,107.3-230.4,117.4c-48,5.6-44.8-16.6-25.7,64.9
						c1.2,5.3,115.7,38.2,257.6,11.1c77.6-14.9,171.6-51.6,228.6-99.7c2.7-2.3,5.3-4.6,7.7-6.9C991.9,1031.1,958.6,1025.7,927,1035z
						"/>
					<path class="st21" d="M790.4,956.4c-4.3,3-8.5,5.9-12.4,8.7c-69.6,49.4-142.7,107.3-230.4,117.4c-48,5.6-44.8-16.6-25.7,64.9
						c1.2,5.3,115.7,38.2,257.6,11.1c56.9-10.9,122.7-33.6,176.2-63.9c-3.2-0.9-6.4-1.8-9.6-2.6C817.1,1059.8,785,1003,790.4,956.4z
						"/>
				</g>
				<g>
					<path class="st9" d="M832.8,1104.4c31.5-36.6,30.2,2,73.2-11.4c16.2-5.1,31-11.1,48.3-8.6c30.8,4.5,58.7,27.9,78.2,51
						c11.4,13.5,20.9,28.4,27.9,44.6c1.7,3.9-1.2,10-6.2,8.1c-20.1-7.5-40.2-14.7-60.3-21.9c-19.7-7.1-39.3-14.8-59.5-20.4
						c-20.3-5.7-40.7-8.4-61.6-5.2c-15.4,2.4-36,3.6-43.9-13.3C825.1,1119.5,827.3,1110.8,832.8,1104.4z"/>
					<path class="st11" d="M1007,1163c-28.9-19-59.8-45.5-66.9-78.8c-11.6,1.1-22.5,5.2-34.1,8.8c-42.9,13.5-41.7-25.2-73.2,11.4
						c-5.5,6.4-7.7,15.1-4.1,22.9c7.9,17,28.5,15.7,43.9,13.3c20.9-3.2,41.4-0.5,61.6,5.2c20.2,5.6,39.8,13.3,59.5,20.4
						c20.1,7.3,40.3,14.5,60.3,21.9c3.5,1.3,5.9-1.2,6.5-4.1C1042.1,1180.3,1024,1174.3,1007,1163z"/>
					<path class="st19" d="M383.7,880.8c68.7-29,175.7,41.3,236.3,84.3c69.6,49.4,142.7,107.3,230.4,117.4
						c48,5.6,44.8-16.6,25.7,64.9c-1.2,5.3-115.7,38.2-257.6,11.1c-77.6-14.9-171.6-51.6-228.6-99.7
						C310.4,991.9,331,903.1,383.7,880.8z"/>
					<path class="st22" d="M364,988c-13-38-1-78,34-100c9.3-5.8,19.1-10.6,29.2-13.8c-15.5-0.9-30.3,1-43.6,6.6
						c-52.7,22.3-73.3,111,6.2,178c11.2,9.4,23.9,18.4,37.5,26.9C399.4,1058.4,377.1,1025.6,364,988z"/>
					<path class="st20" d="M850.4,1082.6c-87.7-10.2-160.8-68-230.4-117.4c-48.5-34.4-126.5-86.2-191-90.8
						c123.9,64.1,54.9,124.3,207,283.7c1.7,1.5,3.4,3,5.1,4.4c131.3,19.9,233.8-9.9,235-14.9C895.2,1066,898.4,1088.2,850.4,1082.6z
						"/>
				</g>
			</g>
			<path class="st23" d="M959.9,1178c-20.1-19.5-40.5-38.7-61.2-57.6c-53.8-49-109.6-95.9-167.3-140.2c7.2-6,14.6-11.9,22-17.6
				c1.3-0.1,2.1-0.9,2.5-1.9c45.7-34.7-8.2-37.3-41.6-12.7c-4.3,3.2-8.6,6.4-12.9,9.5c-4.3-3.2-8.6-6.4-12.9-9.5
				c-33.4-24.5-87.4-22-41.6,12.7c0.4,1,1.3,1.8,2.5,1.9c7.5,5.7,14.8,11.6,22,17.6c-57.7,44.4-113.6,91.2-167.3,140.2
				c-20.7,18.9-41.1,38.1-61.2,57.6c-2.7,2.6-1.9,7,1.2,8.9c10.4,6.5,20.7,13,31.2,19.4c2.1,1.3,4.9,0.8,6.7-0.9
				c40.9-37.9,82.4-75.2,123.6-112.7c31.9-29,63.3-58.7,95.8-87.1c32.5,28.4,63.9,58.1,95.8,87.1c41.3,37.5,82.8,74.8,123.6,112.7
				c1.8,1.6,4.5,2.2,6.7,0.9c10.4-6.4,20.8-12.9,31.2-19.4C961.8,1185,962.6,1180.6,959.9,1178z"/>
			<path class="st24" d="M959.9,1178c-40.2-39.1-81.2-76.6-124.8-113.8c1.6,1.9,3.2,3.9,4.9,5.8c11.5,14.1,109.3,121.3,110.2,122.3
				c2.9-1.8,5.7-3.6,8.6-5.4C961.8,1185,962.6,1180.6,959.9,1178z"/>
			<path class="st24" d="M649,999c1.9-1.9,3.9-3.9,5.8-5.9c-51.8,40.5-102.1,83-150.6,127.3c-20.7,18.9-41.1,38.1-61.2,57.6
				c-2.7,2.6-1.9,7,1.2,8.9c0.2,0.1,0.3,0.2,0.5,0.3C490.2,1148.2,568,1071.5,649,999z"/>
			<path class="st25" d="M780,1021c-0.9-1.5-1.7-3-2.4-4.5c-15.3-12.3-30.6-24.4-46.2-36.3c7.2-6,14.6-11.9,22-17.6
				c1.3-0.1,2.1-0.9,2.5-1.9c45.7-34.7-8.2-37.3-41.6-12.7c-4.3,3.2-8.6,6.4-12.9,9.5c-4.3-3.2-8.6-6.4-12.9-9.5
				c-33.4-24.5-87.4-22-41.6,12.7c0.4,1,1.3,1.8,2.5,1.9c4.5,3.5,9,7,13.5,10.6c0-0.1,0-0.1,0-0.2c0,0.1,0,0.1,0,0.2
				c2.9,2.3,5.7,4.6,8.5,6.9c-4.7,3.6-9.5,7.3-14.2,11c-13.6,37.4-36.8,70.4-65.3,98.9c-41.2,38.7-81.6,74-120.9,113.7
				c1.4,0.9,2.8,1.7,4.2,2.6c2.1,1.3,4.9,0.8,6.7-0.9c40.9-37.9,82.4-75.2,123.6-112.7c31.9-29,63.3-58.7,95.8-87.1
				c32.5,28.4,63.9,58.1,95.8,87.1c26.3,23.9,52.7,47.8,79,71.7c-2.2-3.6-4.8-7-7.3-10.5C837,1109,809,1068,780,1021z"/>
			<path class="st26" d="M1030,723.7c-37.5,35.7-19.3,26.4-159.8,105.7c-39.7,22.4-80.1,43.8-120.8,64.1c-9.9,5-20.2,9.6-31.2,11.8
				c-11.6,2.3-21.1-1.6-31.9-5c-21-6.5-42.5-11.6-63.6-18c-41.9-12.7-83.1-27.5-123.5-44.2c-40.7-16.8-127.9-56.9-167.5-84.2
				c-1.1-0.7-2.1,0.9-1.3,1.7c103.3,111.8,346.1,232.1,376.9,231.2c31.3-1,203-115.6,332.6-253.2
				C1043.3,729.9,1033.7,720.1,1030,723.7z"/>
			<path class="st27" d="M1030,723.7c-37.5,35.7-19.3,26.4-159.8,105.7c-39.7,22.4-80.1,43.8-120.8,64.1c-9.9,5-20.2,9.6-31.2,11.8
				c-11.6,2.3-21.1-1.6-31.9-5c-21-6.5-42.5-11.6-63.6-18c-41.9-12.7-83.1-27.5-123.5-44.2c-40.7-16.8-127.9-56.9-167.5-84.2
				c-1.1-0.7-2.1,0.9-1.3,1.7c14.9,16.1,32.7,32.5,52.4,48.6c1,0.3,306.9,144.6,341.3,177.6c54.7-23.5,201.6-126.9,315.8-248.2
				C1043.3,729.9,1033.7,720.1,1030,723.7z"/>
			<path class="st16" d="M954.4,758.4c-5.6-10.1-19.2-27.7-24.9-37.8c-1.3-2.4-3.8-4.8-6.9-4.1c-21,4.6-41.7,10.9-61.2,20.1
				c-34.4,16.2-66.2,36.4-93.8,62.8c-26.6,25.4-51,55.9-65.7,89.9c-18.5-32.1-46.2-59.5-75.6-81.8c-30.4-23-64.3-39.4-100.3-51.6
				c-20.4-6.9-41.7-10.9-63.1-13c-3.1-0.3-5.3,2.3-6.4,4.9c-4.5,10.7-8.9,21.4-13.3,32.1C430.6,810.5,682.8,921.4,704,925.1
				c0,0,0,0,0,0c0,0,0,0,0,0c0,0,0,0,0,0c0,0,0,0,0,0C723.5,919.3,970.7,787.7,954.4,758.4z"/>
			<g>
				<path class="st18" d="M954.4,758.4c-2.7-4.9-7.3-11.5-11.9-18.2c-28.8,6.3-56.5,18.2-83.4,29.8c15-11,32-21,46-34
					c-51,4-91,33-134,61c-1,0.7-2,1.4-3.1,2.1c-0.1,0.1-0.2,0.2-0.3,0.3c-26.6,25.4-51,55.9-65.7,89.9
					c-18.5-32.1-46.2-59.5-75.6-81.8c-30.4-23-64.3-39.4-100.3-51.6c-20.4-6.9-41.7-10.9-63.1-13c-3.1-0.3-5.3,2.3-6.4,4.9
					c-0.2,0.4-0.3,0.8-0.5,1.2c49.1,6.2,98.9,24.4,131.9,63c-40-22-81-41-124-55c21,13,41,27,61,41c0,0-53-20-53-20
					c47.5,37.1,149,78,149,78c-56-9.2-111.3-25.5-161.2-52.4c55.2,43.9,226.9,118.5,244.2,121.5c0,0,0,0,0,0c0,0,0,0,0,0
					c0,0,0,0,0,0c0,0,0,0,0,0C723.5,919.3,970.7,787.7,954.4,758.4z"/>
			</g>
			<path d="M1044.4,697.8c-102.6,58.8-196,113.7-344.2,200.2c-1-0.4-372.8-164.1-374.4-162.7c-5.3,5.1-9.7,10.9-14.3,16.6
				c-9.9,12,381.5,197.7,389.9,192.6c10,4.1,378.3-228.8,366.4-221.6C1072.1,720.3,1065.5,685.7,1044.4,697.8z"/>
		</g>
	</g>
</g>
</svg>
