<svg width="40" height="52" viewBox="0 0 40 52" fill="none" xmlns="http://www.w3.org/2000/svg">
<path fill-rule="evenodd" clip-rule="evenodd" d="M11.6195 29.0057L13.633 31.0225C14.1009 31.4912 14.3637 32.1265 14.3637 32.7888V35.6429H17.209C17.8727 35.6429 18.5092 35.9069 18.9782 36.3766L20.9865 38.3883L22.9948 36.3766C23.4637 35.9069 24.1003 35.6429 24.764 35.6429H27.6093V32.7888C27.6093 32.1264 27.8721 31.4912 28.34 31.0225L30.3534 29.0057L28.34 26.9889C27.8721 26.5202 27.6093 25.8849 27.6093 25.2226V22.3686H24.7642C24.1004 22.3686 23.4639 22.1046 22.9949 21.6349L20.9865 19.6231L18.978 21.6349C18.5091 22.1046 17.8726 22.3686 17.2088 22.3686H14.3637V25.2225C14.3637 25.8849 14.1009 26.5201 13.633 26.9888L11.6195 29.0057ZM16.123 27.0901C16.1699 27.0433 16.1961 26.9797 16.1961 26.9135V24.4572C16.1961 24.3192 16.3081 24.2072 16.4461 24.2072H18.8975C18.9639 24.2072 19.0276 24.1808 19.0744 24.1339L20.8097 22.3957C20.9074 22.2979 21.0659 22.2979 21.1635 22.3957L22.8988 24.1339C22.9457 24.1808 23.0094 24.2072 23.0757 24.2072H25.527C25.665 24.2072 25.777 24.3192 25.777 24.4572V26.9134C25.777 26.9796 25.8033 27.0431 25.8501 27.09L27.5862 28.829C27.6836 28.9266 27.6836 29.0847 27.5862 29.1823L25.8501 30.9212C25.8033 30.9681 25.777 31.0316 25.777 31.0979V33.554C25.777 33.6921 25.665 33.804 25.527 33.804H23.0757C23.0093 33.804 22.9457 33.8304 22.8988 33.8774L21.1635 35.6156C21.0659 35.7134 20.9074 35.7134 20.8097 35.6156L19.0745 33.8774C19.0276 33.8304 18.9639 33.804 18.8976 33.804H16.4461C16.3081 33.804 16.1961 33.6921 16.1961 33.554V31.0977C16.1961 31.0315 16.1699 30.968 16.123 30.9211L14.3871 29.1823C14.2897 29.0847 14.2897 28.9266 14.3871 28.829L16.123 27.0901Z" fill="#4F4F4F"/>
<path fill-rule="evenodd" clip-rule="evenodd" d="M33.9473 0C35.9362 0 37.6539 1.16132 38.4593 2.84283C38.7324 3.41302 38.2561 4 37.6239 4H8.12869C8.04794 4 7.97217 4.039 7.92526 4.10471L6.85382 5.60471C6.73566 5.77017 6.85391 6 7.05728 6H9.50607C9.64413 6 9.75607 6.11194 9.75607 6.25V15.3796C9.75607 15.6046 10.0302 15.7151 10.1862 15.5529L12.9906 12.6392C13.0889 12.537 13.2525 12.537 13.3508 12.6392L16.1552 15.5529C16.3113 15.7151 16.5854 15.6046 16.5854 15.3796V6.25C16.5854 6.11194 16.6973 6 16.8354 6H38C39.1046 6 40 6.89542 40 8V47C40 49.7614 37.7614 52 35 52H5C2.23859 52 0 49.7614 0 47V8C0 4 3.42856 0 4.57144 0H33.9473ZM12.2176 25.5758C12.3112 25.4821 12.3637 25.355 12.3637 25.2225V20.8686C12.3637 20.5924 12.5876 20.3686 12.8637 20.3686H17.2088C17.3416 20.3686 17.4688 20.3158 17.5626 20.2219L20.6326 17.1467C20.828 16.9511 21.145 16.9511 21.3403 17.1467L24.4103 20.2219C24.5041 20.3158 24.6314 20.3686 24.7642 20.3686H29.1093C29.3854 20.3686 29.6093 20.5924 29.6093 20.8686V25.2226C29.6093 25.3551 29.6618 25.4821 29.7554 25.5759L32.8268 28.6524C33.0217 28.8476 33.0217 29.1637 32.8268 29.3589L29.7554 32.4355C29.6618 32.5292 29.6093 32.6563 29.6093 32.7888V37.1429C29.6093 37.4191 29.3854 37.6429 29.1093 37.6429H24.764C24.6313 37.6429 24.504 37.6957 24.4102 37.7896L21.3403 40.8646C21.145 41.0603 20.828 41.0603 20.6326 40.8646L17.5628 37.7896C17.469 37.6957 17.3417 37.6429 17.209 37.6429H12.8637C12.5876 37.6429 12.3637 37.4191 12.3637 37.1429V32.7888C12.3637 32.6563 12.3112 32.5293 12.2176 32.4355L9.14609 29.3589C8.95123 29.1637 8.95123 28.8476 9.14609 28.6524L12.2176 25.5758Z" fill="#4F4F4F"/>
</svg>
